<svg xmlns="http://www.w3.org/2000/svg" xml:space="preserve" width="349.32" height="329.99" viewBox="0 0 92.424 87.31"><path d="M489.3 336.291c4.705 4.51 9.266 8.667 13.546 13.096 2.496 2.584 4.327 2.744 7.006.146 13.991-13.568 28.118-26.996 42.219-40.451 35.432-33.811 71.046-67.432 105.881-101.863 1.022-1.01 1.894-2.384 3.747-2.253 1.443 1.31.84 3.081.844 4.634.047 16.495-.07 32.991.094 49.484.034 3.498-1.15 5.943-3.587 8.29-32.284 31.076-64.517 62.205-96.75 93.334-16.056 15.508-32.169 30.96-48.057 46.638-3.17 3.128-5.084 3.477-8.424.181-17.433-17.197-35.046-34.213-52.744-51.138-2.593-2.48-2.638-3.943-.1-6.377 7.334-7.032 14.53-14.213 21.628-21.483 2.35-2.406 4.167-2.783 6.57-.156 2.47 2.699 5.23 5.13 8.126 7.918z" style="fill:#000" transform="translate(-88.722 -50.619) scale(.26458)"/><path d="M471.798 257.941c2.72-3.504 4.86-2.845 7.537-.18 18.06 17.986 36.165 35.927 54.452 53.68 3.64 3.534 3.651 5.718-.157 9.114-7.953 7.09-15.592 14.543-23.135 22.072-2.594 2.59-4.287 2.75-6.918.082-6.43-6.523-13.128-12.782-19.734-19.13-1.778-1.708-3.615-3.353-5.853-5.424L365.196 426.637c-2.368-1.56-1.516-3.583-1.523-5.24-.072-17.493.054-34.988-.128-52.479-.04-3.847 1.244-6.478 3.958-9.12 34.741-33.804 69.38-67.715 104.295-101.857z" style="fill:#000" transform="translate(-88.722 -50.619) scale(.26458)"/><path d="M555.762 398.483c-13.33-11.111-13.295-11.08-1.348-22.86 15.058-14.848 30.043-29.758 45.082-44.62 1.484-1.468 2.706-3.29 4.974-3.879 2.372 1.33 1.656 3.415 1.76 5.134.719 11.933 1.244 23.878 2.01 35.809.205 3.193-.575 5.729-3.036 8.133a2602.217 2602.217 0 0 0-31.662 31.45c-2.168 2.192-3.835 2.315-6.105.385-3.72-3.16-7.565-6.196-11.675-9.552z" style="fill:#000;stroke-width:1.17318" transform="translate(-88.722 -50.619) scale(.26458)"/><text xml:space="preserve" x="368.465" y="503.357" style="font-size:48px;white-space:pre;inline-size:162.36;display:inline;fill:#000" transform="matrix(.61569 0 0 .5363 -222.253 -189.627)"><tspan x="368.465" y="503.357"><tspan style="font-family:&quot;KH Teka&quot;;-inkscape-font-specification:&quot;KH Teka&quot;">modlit</tspan></tspan></text></svg>